<?xml version="1.0" encoding="UTF-8" standalone="no"?>
<svg
   width="1000"
   height="250"
   version="1.1"
   viewBox="0 0 100 25"
   id="svg1"
   sodipodi:docname="header.svg"
   inkscape:version="1.4.2 (ebf0e940d0, 2025-05-08)"
   xmlns:inkscape="http://www.inkscape.org/namespaces/inkscape"
   xmlns:sodipodi="http://sodipodi.sourceforge.net/DTD/sodipodi-0.dtd"
   xmlns="http://www.w3.org/2000/svg"
   xmlns:svg="http://www.w3.org/2000/svg">
  <defs
     id="defs1" />
  <sodipodi:namedview
     id="namedview1"
     pagecolor="#ffffff"
     bordercolor="#000000"
     borderopacity="0.25"
     inkscape:showpageshadow="false"
     inkscape:pageopacity="0.0"
     inkscape:pagecheckerboard="0"
     inkscape:deskcolor="#d1d1d1"
     inkscape:zoom="0.55173665"
     inkscape:cx="571.83078"
     inkscape:cy="211.15146"
     inkscape:window-width="1920"
     inkscape:window-height="1008"
     inkscape:window-x="0"
     inkscape:window-y="0"
     inkscape:window-maximized="1"
     inkscape:current-layer="svg1" />
  <rect
     x="11.810005"
     y="4.6099997"
     width="15.98"
     height="15.98"
     ry="7.9899998"
     fill="#241f31"
     id="rect1" />
  <path
     d="m 19.8,4.6 c -4.4124,0 -8,3.5876 -8,8 0,4.4124 3.5876,8 8,8 4.4124,0 8,-3.5876 8,-8 0,-4.4124 -3.5876,-8 -8,-8 z m 0,1 c 3.8719,0 7,3.1281 7,7 0,3.8719 -3.1281,7 -7,7 v -2 c -2.7613,0 -5,-2.2387 -5,-5 a 0.5,0.5 0 0 1 0.5,-0.5 0.5,0.5 0 0 1 0.5,0.5 c 0,2.2246 1.7754,4 4,4 z m 0,11 v 1 c 2.7613,0 5,-2.2387 5,-5 a 0.5,0.5 0 0 0 -0.5,-0.5 0.5,0.5 0 0 0 -0.5,0.5 c 0,2.2246 -1.7754,4 -4,4 z"
     fill="#c061cb"
     id="path1" />
  <text
     xml:space="preserve"
     style="font-family:sans-serif;text-align:start;writing-mode:lr-tb;direction:ltr;text-anchor:start;fill:#c061cb;fill-opacity:1;stroke-width:0"
     x="32.367115"
     y="16.441149"
     id="text1"><tspan
       sodipodi:role="line"
       id="tspan1"
       x="32.367115"
       y="16.441149">pona.la</tspan></text>
</svg>
